<?xml version="1.0" encoding="UTF-8"?>
<svg xmlns="http://www.w3.org/2000/svg" id="Layer_1" data-name="Layer 1" viewBox="0 0 24 24">
  <path d="m.212,4.908c-.226-.159-.279-.471-.12-.696C1.552,2.143,4.009.729,7.396.011c.267-.051.535.114.593.386.058.27-.115.535-.386.593-3.133.664-5.385,1.942-6.695,3.799-.097.139-.252.212-.408.212-.1,0-.2-.029-.288-.092Zm20.677,10.269l-3.959,6.447c-.803,1.308-2.138,2.16-3.663,2.341-.2.023-.398.035-.597.035-1.242,0-2.424-.475-3.349-1.322-.804.805-1.923,1.322-3.061,1.322s-2.208-.443-3.012-1.248c-.805-.804-1.248-1.874-1.248-3.012s.494-2.241,1.298-3.045l-1.812-1.809C.402,13.804-.117,12.312.06,10.791c.178-1.521,1.027-2.855,2.332-3.66l6.064-3.742c3.365-2.136,7.647-1.767,10.597.851l2.094-2.094c.195-.195.512-.195.707,0s.195.512,0,.707l-2.091,2.091c2.515,2.795,2.993,6.933,1.126,10.232Zm-12.269,6.831l-4.631-4.624c-.616.615-.989,1.485-.989,2.356s.339,1.689.955,2.305c1.23,1.232,3.434,1.196,4.665-.037Zm11.408-7.339c1.716-3.032,1.188-6.889-1.291-9.364-1.522-1.52-3.516-2.304-5.531-2.304-1.45,0-2.911.405-4.218,1.235l-6.07,3.746c-1.043.643-1.723,1.709-1.864,2.924-.141,1.215.274,2.407,1.141,3.272l7.667,7.655c.869.867,2.071,1.284,3.288,1.138,1.22-.144,2.287-.826,2.93-1.871l3.949-6.432Zm3.586,1.344c-.27-.062-.538.106-.601.374-.759,3.268-2.001,5.46-3.797,6.702-.228.157-.284.469-.127.695.097.141.253.216.411.216.099,0,.197-.028.284-.089,2.01-1.391,3.385-3.777,4.203-7.298.062-.27-.105-.538-.374-.601Z"/>
</svg>
