<?xml version="1.0" encoding="UTF-8"?>
<svg xmlns="http://www.w3.org/2000/svg" id="Layer_1" data-name="Layer 1" viewBox="0 0 24 24">
  <path d="M18,9C18,4.037,13.962,0,9,0S0,4.037,0,9v9H9c4.962,0,9-4.037,9-9Zm-9,6H3v-6c0-3.309,2.691-6,6-6s6,2.691,6,6-2.691,6-6,6Zm15,1v8h-8c-2.955,0-5.535-1.615-6.92-4.004,1.159-.008,2.274-.199,3.322-.54,.91,.948,2.184,1.544,3.598,1.544h5v-5c0-1.415-.597-2.688-1.544-3.598,.342-1.048,.532-2.163,.54-3.322,2.389,1.385,4.004,3.965,4.004,6.92Zm-13.5-7c0,.828-.672,1.5-1.5,1.5s-1.5-.672-1.5-1.5,.672-1.5,1.5-1.5,1.5,.672,1.5,1.5Zm-4,0c0,.828-.672,1.5-1.5,1.5s-1.5-.672-1.5-1.5,.672-1.5,1.5-1.5,1.5,.672,1.5,1.5Zm6.5-1.5c.828,0,1.5,.672,1.5,1.5s-.672,1.5-1.5,1.5-1.5-.672-1.5-1.5,.672-1.5,1.5-1.5Z"/>
</svg>
